<svg width="400" height="400" xmlns="http://www.w3.org/2000/svg" viewBox="0 0 400 400">
  <defs>
    <pattern id="adinkraPattern" x="0" y="0" width="100" height="100" patternUnits="userSpaceOnUse">
      <!-- Sankofa Symbol - Return and get it -->
      <g fill="none" stroke="#00ffcc" stroke-width="1.5" opacity="0.6">
        <circle cx="50" cy="50" r="20" fill="none"/>
        <path d="M30 50 Q50 30 70 50" fill="none"/>
        <circle cx="35" cy="45" r="3" fill="#00ffcc"/>
        <path d="M35 42 L35 48 M32 45 L38 45" stroke-width="1"/>
      </g>
    </pattern>
    
    <pattern id="adinkraPattern2" x="0" y="0" width="80" height="80" patternUnits="userSpaceOnUse">
      <!-- Gye Nyame Symbol - Except for God -->
      <g fill="none" stroke="#00ffcc" stroke-width="1" opacity="0.4">
        <circle cx="40" cy="40" r="15"/>
        <path d="M40 25 L40 55 M25 40 L55 40"/>
        <circle cx="40" cy="30" r="3" fill="#00ffcc" opacity="0.8"/>
        <circle cx="40" cy="50" r="3" fill="#00ffcc" opacity="0.8"/>
        <circle cx="30" cy="40" r="3" fill="#00ffcc" opacity="0.8"/>
        <circle cx="50" cy="40" r="3" fill="#00ffcc" opacity="0.8"/>
      </g>
    </pattern>

    <pattern id="techNodes" x="0" y="0" width="120" height="120" patternUnits="userSpaceOnUse">
      <!-- Tech-inspired geometric patterns -->
      <g fill="#00ffcc" opacity="0.3">
        <circle cx="20" cy="20" r="2"/>
        <circle cx="60" cy="30" r="1.5"/>
        <circle cx="100" cy="50" r="2.5"/>
        <circle cx="40" cy="80" r="1"/>
        <circle cx="80" cy="100" r="2"/>
        <!-- Connection lines -->
        <line x1="20" y1="20" x2="60" y2="30" stroke="#00ffcc" stroke-width="0.5" opacity="0.4"/>
        <line x1="60" y1="30" x2="100" y2="50" stroke="#00ffcc" stroke-width="0.5" opacity="0.4"/>
        <line x1="40" y1="80" x2="80" y2="100" stroke="#00ffcc" stroke-width="0.5" opacity="0.4"/>
      </g>
    </pattern>

    <!-- Radial gradient for depth -->
    <radialGradient id="centerGlow" cx="50%" cy="50%" r="50%">
      <stop offset="0%" style="stop-color:#00ffcc;stop-opacity:0.1"/>
      <stop offset="100%" style="stop-color:#00ffcc;stop-opacity:0"/>
    </radialGradient>
  </defs>

  <!-- Background with subtle glow -->
  <rect width="400" height="400" fill="url(#centerGlow)"/>
  
  <!-- Main Adinkra patterns -->
  <rect width="400" height="400" fill="url(#adinkraPattern)"/>
  <rect width="400" height="400" fill="url(#adinkraPattern2)" transform="rotate(45 200 200)"/>
  
  <!-- Tech node overlay -->
  <rect width="400" height="400" fill="url(#techNodes)" opacity="0.6"/>

  <!-- Central focal symbol - Nyame Dua (Tree of God) -->
  <g transform="translate(200,200)" fill="none" stroke="#00ffcc" stroke-width="2" opacity="0.8">
    <!-- Tree trunk -->
    <line x1="0" y1="-60" x2="0" y2="60" stroke-width="3"/>
    
    <!-- Branches -->
    <path d="M0,-40 Q-20,-50 -30,-35 Q-25,-30 -15,-35" fill="none" stroke-width="1.5"/>
    <path d="M0,-40 Q20,-50 30,-35 Q25,-30 15,-35" fill="none" stroke-width="1.5"/>
    <path d="M0,-20 Q-15,-30 -25,-15 Q-20,-10 -10,-15" fill="none" stroke-width="1.5"/>
    <path d="M0,-20 Q15,-30 25,-15 Q20,-10 10,-15" fill="none" stroke-width="1.5"/>
    
    <!-- Roots -->
    <path d="M0,40 Q-20,50 -30,65" fill="none" stroke-width="1.5"/>
    <path d="M0,40 Q20,50 30,65" fill="none" stroke-width="1.5"/>
    <path d="M0,50 Q-10,60 -15,70" fill="none" stroke-width="1"/>
    <path d="M0,50 Q10,60 15,70" fill="none" stroke-width="1"/>
    
    <!-- Sacred geometry circles -->
    <circle cx="0" cy="-20" r="5" fill="none" stroke-width="1"/>
    <circle cx="0" cy="0" r="8" fill="none" stroke-width="1"/>
    <circle cx="0" cy="20" r="5" fill="none" stroke-width="1"/>
  </g>

  <!-- Decorative corner elements -->
  <g fill="#00ffcc" opacity="0.4">
    <!-- Top left -->
    <circle cx="50" cy="50" r="3"/>
    <circle cx="60" cy="40" r="2"/>
    <circle cx="40" cy="60" r="2"/>
    
    <!-- Top right -->
    <circle cx="350" cy="50" r="3"/>
    <circle cx="340" cy="40" r="2"/>
    <circle cx="360" cy="60" r="2"/>
    
    <!-- Bottom left -->
    <circle cx="50" cy="350" r="3"/>
    <circle cx="60" cy="360" r="2"/>
    <circle cx="40" cy="340" r="2"/>
    
    <!-- Bottom right -->
    <circle cx="350" cy="350" r="3"/>
    <circle cx="340" cy="360" r="2"/>
    <circle cx="360" cy="340" r="2"/>
  </g>

  <!-- Subtle animation paths (for CSS animation) -->
  <g fill="none" stroke="#00ffcc" stroke-width="0.5" opacity="0.2">
    <circle cx="200" cy="200" r="100" stroke-dasharray="5,5">
      <animateTransform
        attributeName="transform"
        attributeType="XML"
        type="rotate"
        from="0 200 200"
        to="360 200 200"
        dur="60s"
        repeatCount="indefinite"/>
    </circle>
    <circle cx="200" cy="200" r="120" stroke-dasharray="3,7" transform="rotate(180 200 200)">
      <animateTransform
        attributeName="transform"
        attributeType="XML"
        type="rotate"
        from="180 200 200"
        to="-180 200 200"
        dur="80s"
        repeatCount="indefinite"/>
    </circle>
  </g>
</svg>
